<?xml version="1.0" encoding="UTF-8"?>
<svg id="Layer_2" data-name="Layer 2" xmlns="http://www.w3.org/2000/svg" viewBox="0 0 32 30.51">
  <defs>
    <style>
      .cls-1 { fill: #f0ae5b; }
      .cls-2 { fill: #afd9b3; }
      .cls-3 { fill: #82a7d8; }
      .cls-4 { fill: #b461a5; }
      .cls-5 { fill: #7662aa; }
    </style>
  </defs>
  <g id="Layer_1-2" data-name="Layer 1">
    <g>
      <path class="cls-1" d="m28.45,5.95H3.55C6.48,2.32,10.97,0,16,0s9.52,2.32,12.45,5.95Z"/>
      <path class="cls-4" d="m31.65,12.65H.35c.34-1.59.91-3.09,1.68-4.47h27.93c.77,1.38,1.35,2.88,1.68,4.47Z"/>
      <path class="cls-5" d="m32,16c0,1.15-.12,2.27-.35,3.35H.35c-.23-1.08-.35-2.2-.35-3.35,0-.38.01-.75.04-1.12h31.92c.02.37.04.74.04,1.12Z"/>
      <path class="cls-3" d="m31,21.58c-.5,1.33-1.17,2.58-1.98,3.72H2.98c-.82-1.14-1.48-2.39-1.98-3.72h30Z"/>
      <path class="cls-2" d="m27.09,27.53c-1.27,1.22-2.73,2.23-4.34,2.98h-13.5c-1.61-.75-3.07-1.76-4.34-2.98h22.18Z"/>
    </g>
  </g>
</svg>
